<?xml version="1.0" encoding="UTF-8" standalone="no"?>
<!-- Generator: Adobe Illustrator 16.0.0, SVG Export Plug-In . SVG Version: 6.00 Build 0)  -->
<svg xmlns:rdf="http://www.w3.org/1999/02/22-rdf-syntax-ns#" xmlns="http://www.w3.org/2000/svg" enable-background="new 0 0 1920 1080" xml:space="preserve" height="305.03" viewBox="0 0 1601.1796 305.03101" width="1601.2" version="1.1" y="0px" x="0px" xmlns:cc="http://creativecommons.org/ns#" xmlns:dc="http://purl.org/dc/elements/1.1/"><metadata><rdf:RDF><cc:Work rdf:about=""><dc:format>image/svg+xml</dc:format><dc:type rdf:resource="http://purl.org/dc/dcmitype/StillImage"/><dc:title/></cc:Work></rdf:RDF></metadata><defs>
</defs>
<path fill="#82b541" d="m206.06,31.535c-8.048-4.467-31.118-1.705-58.826,6.872-48.493,33.147-89.42,81.981-92.276,160.4-0.52,1.875-5.303-0.255-6.249-0.835-13.095-25.099-18.283-51.528-7.349-89.654,2.038-3.393-4.625-7.57-5.823-6.377-2.4,2.404-12.405,13.062-19.05,24.588-32.938,57.138-11.398,130.35,46.229,162.39,57.615,32.09,130.37,11.39,162.45-46.242,37.113-66.518,2.652-198.99-19.105-211.14z"/>
<path d="m412.29,63.459c-68.314,0-117.9,50.786-117.9,120.76,0,70.548,49.457,119.82,120.28,119.82,35.773,0,64.095-11.186,86.619-34.213,6.727-7.264,7.451-14.264,7.451-16.94,0-11.407-8.483-19.693-20.171-19.693-5.891,0-10.819,2.225-16.471,7.451-12.754,11.884-29.55,24.024-57.428,24.024-38.766,0-70.293-29.105-72.279-66.481h154.29c16.778,0,24.928-7.844,24.928-23.974,0-4.749,0-8.176-0.955-14.937-8.312-59.994-48.817-95.809-108.36-95.809zm0,37.461c37.043,0,60.813,23.607,62.279,61.708h-132.13c3.469-35.262,33.283-61.708,69.849-61.708z"/><path d="m668.94,63.459c-31.033,0-61.759,17.844-73.763,42.627v-15.316c0-23.727-18.389-24.929-22.072-24.929-10.896,0-22.541,6.548-22.541,24.929v184.99c0,24.639,19.574,25.884,23.496,25.884s23.505-1.245,23.505-25.884v-99.168c0-43.148,24.451-73.285,59.457-73.285,33.906,0,50.394,22.251,50.394,68.033v104.42c0,24.639,19.583,25.884,23.505,25.884s23.496-1.245,23.496-25.884v-119.18c0-45.015-22.456-93.107-85.477-93.107z"/><path d="m967.08,65.845c-10.861,0-18.738,6.335-23.428,18.799l-64.304,161.7-63.813-161.7c-4.996-12.651-12.814-18.799-23.906-18.799-12.958,0-23.504,10.111-23.504,22.542,0,3.077,0.349,7.067,2.95,13.299l73.899,174.49c8.807,21.05,23.291,25.467,33.896,25.467,10.598,0,25.091-4.417,33.915-25.457l74.38-175.46c2.541-6.155,2.934-10.674,2.934-12.813,0-12.575-9.907-22.065-23.019-22.065z"/><path d="m1103.7,63.459c-30.061,0-58.059,8.372-78.826,23.556-7.043,4.859-10.47,10.921-10.47,18.543,0,10.495,8.014,18.722,18.262,18.722,4.433,0,9.395-1.765,13.947-4.954,17.853-11.901,34.631-17.451,52.79-17.451,34.75,0,54.699,17.673,54.699,48.493v5.107c-78.008,0.085-157.35,9.506-157.35,77.369,0,48.842,41.74,70.71,83.105,70.71,32.943,0,59.253-13.053,76.133-37.769v11.885c0,17.699,11.885,23.975,22.082,23.975,2.147,0,21.108-0.674,21.108-23.975v-124.45c0-56.217-35.703-89.773-95.484-89.773zm40.514,126.62h9.889v10.827c0,39.601-25.218,65.186-64.23,65.186-10.589,0-45.151-2.464-45.151-34.204-0.001-37.478,56.779-41.809,99.492-41.809z"/><path d="m1321.6,108.55c20.564,0,21.604-16.002,21.604-19.208,0-9.515-5.678-19.686-21.604-19.686h-42.286v-42.772c0-19.106-12.396-25.884-23.019-25.884-3.922,0-23.496,1.245-23.496,25.884v203.11c0,46.873,23.121,71.648,66.874,71.648,11.321,0,22.354-2.004,29.565-5.363,8.271-4.126,13.011-10.912,13.011-18.611,0-10.861-7.878-18.738-18.739-18.738-2.098,0-5.081,0.52-8.372,1.466-4.024,1.007-6.752,1.398-9.736,1.398-17.801,0-26.088-11.62-26.088-36.574v-116.69h42.286z"/><path d="m1477,63.459c-71.086,0-122.66,50.386-122.66,119.8,0,33.796,12.498,64.598,35.176,86.729,22.507,21.953,53.574,34.043,87.488,34.043,70.199,0,123.14-51.92,123.14-120.77-0.001-69.415-51.801-119.8-123.14-119.8zm0,200.72c-48.748,0-74.24-40.71-74.24-80.925,0-55.262,38.484-80.429,74.24-80.429s74.24,25.167,74.24,80.429c0,55.604-38.484,80.925-74.24,80.925z"/>
</svg>
