<svg fill="#000000" xmlns="http://www.w3.org/2000/svg"  viewBox="0 0 64 64" width="256px" height="256px"><path d="M 4 16.058594 C 3.449219 16.058594 3 16.503906 3 17.058594 L 3 19.058594 C 3 19.609375 3.449219 20.058594 4 20.058594 C 4.550781 20.058594 5 19.609375 5 19.058594 L 5 17.058594 C 5 16.503906 4.550781 16.058594 4 16.058594 Z M 9 16.058594 C 8.449219 16.058594 8 16.503906 8 17.058594 L 8 19.058594 C 8 19.609375 8.449219 20.058594 9 20.058594 C 9.550781 20.058594 10 19.609375 10 19.058594 L 10 17.058594 C 10 16.503906 9.550781 16.058594 9 16.058594 Z M 14 16.058594 C 13.449219 16.058594 13 16.503906 13 17.058594 L 13 19.058594 C 13 19.609375 13.449219 20.058594 14 20.058594 C 14.550781 20.058594 15 19.609375 15 19.058594 L 15 17.058594 C 15 16.503906 14.550781 16.058594 14 16.058594 Z M 19 16.058594 C 18.449219 16.058594 18 16.503906 18 17.058594 L 18 19.058594 C 18 19.609375 18.449219 20.058594 19 20.058594 C 19.550781 20.058594 20 19.609375 20 19.058594 L 20 17.058594 C 20 16.503906 19.550781 16.058594 19 16.058594 Z M 24 16.058594 C 23.449219 16.058594 23 16.503906 23 17.058594 L 23 19.058594 C 23 19.609375 23.449219 20.058594 24 20.058594 C 24.550781 20.058594 25 19.609375 25 19.058594 L 25 17.058594 C 25 16.503906 24.550781 16.058594 24 16.058594 Z M 29 16.058594 C 28.449219 16.058594 28 16.503906 28 17.058594 L 28 19.058594 C 28 19.609375 28.449219 20.058594 29 20.058594 C 29.550781 20.058594 30 19.609375 30 19.058594 L 30 17.058594 C 30 16.503906 29.550781 16.058594 29 16.058594 Z M 34 16.058594 C 33.449219 16.058594 33 16.503906 33 17.058594 L 33 19.058594 C 33 19.609375 33.449219 20.058594 34 20.058594 C 34.550781 20.058594 35 19.609375 35 19.058594 L 35 17.058594 C 35 16.503906 34.550781 16.058594 34 16.058594 Z M 39 16.058594 C 38.449219 16.058594 38 16.503906 38 17.058594 L 38 19.058594 C 38 19.609375 38.449219 20.058594 39 20.058594 C 39.550781 20.058594 40 19.609375 40 19.058594 L 40 17.058594 C 40 16.503906 39.550781 16.058594 39 16.058594 Z M 44 16.058594 C 43.449219 16.058594 43 16.503906 43 17.058594 L 43 19.058594 C 43 19.609375 43.449219 20.058594 44 20.058594 C 44.550781 20.058594 45 19.609375 45 19.058594 L 45 17.058594 C 45 16.503906 44.550781 16.058594 44 16.058594 Z M 49 16.058594 C 48.449219 16.058594 48 16.503906 48 17.058594 L 48 19.058594 C 48 19.609375 48.449219 20.058594 49 20.058594 C 49.550781 20.058594 50 19.609375 50 19.058594 L 50 17.058594 C 50 16.503906 49.550781 16.058594 49 16.058594 Z M 54 16.058594 C 53.449219 16.058594 53 16.503906 53 17.058594 L 53 19.058594 C 53 19.609375 53.449219 20.058594 54 20.058594 C 54.550781 20.058594 55 19.609375 55 19.058594 L 55 17.058594 C 55 16.503906 54.550781 16.058594 54 16.058594 Z M 59 16.058594 C 58.449219 16.058594 58 16.503906 58 17.058594 L 58 19.058594 C 58 19.609375 58.449219 20.058594 59 20.058594 C 59.550781 20.058594 60 19.609375 60 19.058594 L 60 17.058594 C 60 16.503906 59.550781 16.058594 59 16.058594 Z M 41.164063 21.644531 C 38.734375 21.644531 34.835938 22.480469 32.582031 25.15625 C 32.5625 24.410156 32.289063 23.691406 31.796875 23.117188 C 31.191406 22.410156 30.316406 22.003906 29.394531 22.003906 L 26.824219 22.003906 C 26.214844 22.003906 25.644531 22.179688 25.160156 22.480469 C 24.8125 22.179688 24.363281 21.992188 23.863281 21.992188 L 19.207031 21.992188 C 18.351563 21.992188 17.59375 22.535156 17.3125 23.34375 L 15.078125 29.863281 L 14.296875 25.566406 C 14.09375 24.128906 12.785156 22.066406 9.921875 22.066406 L 2.273438 22.066406 C 1.113281 22.066406 0.164063 22.871094 0.0195313 23.976563 C -0.125 25.078125 0.570313 26.125 1.640625 26.410156 C 2.171875 26.554688 3.589844 26.988281 5.296875 27.933594 C 5.402344 27.992188 5.488281 28.109375 5.523438 28.25 L 9.3125 43.5625 C 9.671875 45.003906 10.941406 46.011719 12.402344 46.011719 L 15.859375 46.011719 C 17.167969 46.011719 18.328125 45.210938 18.816406 43.972656 L 21.90625 36.128906 L 20.941406 42.359375 C 20.796875 43.316406 21.066406 44.28125 21.691406 45.007813 C 22.296875 45.714844 23.171875 46.121094 24.09375 46.121094 L 26.667969 46.121094 C 27.871094 46.121094 28.929688 45.445313 29.472656 44.421875 C 29.84375 44.953125 30.378906 45.371094 31.03125 45.597656 C 32.179688 45.992188 34.039063 46.464844 36.375 46.464844 C 38.882813 46.464844 41.472656 45.710938 43.453125 44.261719 C 43.527344 44.417969 43.613281 44.570313 43.710938 44.71875 C 44.304688 45.59375 45.285156 46.121094 46.335938 46.121094 L 48.90625 46.121094 C 50.253906 46.121094 51.464844 45.25 51.914063 43.953125 L 52.199219 43.128906 L 55.46875 43.128906 L 55.539063 43.503906 C 55.835938 45.019531 57.152344 46.121094 58.667969 46.121094 L 60.808594 46.121094 C 61.753906 46.121094 62.648438 45.695313 63.253906 44.953125 C 63.882813 44.195313 64.128906 43.199219 63.9375 42.226563 L 60.441406 24.609375 C 60.144531 23.101563 58.828125 22.003906 57.316406 22.003906 L 54.277344 22.003906 C 51.730469 22.003906 50.457031 23.785156 50.097656 24.816406 L 46.222656 34.527344 C 45.105469 32.246094 42.863281 30.972656 41.359375 30.121094 C 41.234375 30.050781 41.097656 29.976563 40.953125 29.894531 C 41.652344 29.898438 42.4375 30.015625 43.109375 30.230469 C 43.410156 30.324219 43.726563 30.371094 44.046875 30.371094 C 45.589844 30.371094 46.894531 29.246094 47.152344 27.695313 L 47.449219 25.890625 C 47.714844 24.277344 46.753906 22.71875 45.214844 22.269531 C 44.234375 21.984375 42.730469 21.644531 41.164063 21.644531 Z M 41.164063 23.644531 C 42.5 23.644531 43.800781 23.945313 44.65625 24.191406 C 45.226563 24.359375 45.574219 24.953125 45.472656 25.566406 L 45.175781 27.371094 C 45.078125 27.96875 44.589844 28.375 44.046875 28.375 C 43.933594 28.375 43.820313 28.355469 43.707031 28.320313 C 42.851563 28.050781 41.859375 27.894531 40.9375 27.894531 C 39.328125 27.894531 37.953125 28.378906 37.953125 29.59375 C 37.953125 31.867188 44.90625 32.351563 44.90625 37.582031 C 44.902344 42.617188 39.773438 44.46875 36.375 44.46875 C 34.285156 44.46875 32.644531 44.039063 31.683594 43.707031 C 31.136719 43.519531 30.8125 42.945313 30.910156 42.347656 L 31.21875 40.472656 C 31.320313 39.867188 31.816406 39.480469 32.363281 39.480469 C 32.511719 39.480469 32.660156 39.503906 32.808594 39.5625 C 33.847656 39.980469 35.152344 40.222656 36.347656 40.222656 C 38.15625 40.222656 39.714844 39.664063 39.714844 38.296875 C 39.714844 35.566406 32.820313 35.503906 32.820313 30.304688 C 32.820313 24.78125 38.691406 23.644531 41.164063 23.644531 Z M 19.203125 23.996094 L 23.859375 23.996094 L 23.839844 24.121094 C 23.765625 24.320313 23.707031 24.53125 23.671875 24.75 L 23.296875 27.152344 L 16.953125 43.246094 C 16.773438 43.710938 16.339844 44.011719 15.859375 44.011719 L 12.402344 44.011719 C 11.863281 44.011719 11.390625 43.628906 11.253906 43.078125 L 7.460938 27.769531 C 7.292969 27.089844 6.855469 26.511719 6.265625 26.183594 C 4.378906 25.144531 2.792969 24.65625 2.160156 24.484375 C 1.96875 24.433594 1.882813 24.070313 2.273438 24.070313 L 9.921875 24.070313 C 12.113281 24.070313 12.316406 25.878906 12.316406 25.878906 L 14.074219 35.53125 C 14.132813 35.863281 14.394531 36.035156 14.65625 36.035156 C 14.886719 36.035156 15.113281 35.90625 15.210938 35.625 Z M 54.277344 24.003906 L 57.316406 24.003906 C 57.878906 24.003906 58.367188 24.421875 58.480469 25 L 61.972656 42.613281 C 62.128906 43.390625 61.5625 44.121094 60.808594 44.121094 L 58.667969 44.121094 C 58.101563 44.121094 57.617188 43.703125 57.5 43.125 L 57.308594 42.132813 C 57.195313 41.550781 56.707031 41.136719 56.140625 41.136719 L 51.609375 41.136719 C 51.109375 41.136719 50.664063 41.460938 50.492188 41.953125 L 50.027344 43.300781 C 49.851563 43.792969 49.40625 44.121094 48.90625 44.121094 L 46.335938 44.121094 C 45.484375 44.121094 44.910156 43.210938 45.238281 42.386719 L 51.976563 25.503906 C 51.976563 25.503906 52.429688 24.003906 54.277344 24.003906 Z M 26.820313 24.007813 L 29.390625 24.007813 C 30.128906 24.007813 30.6875 24.695313 30.566406 25.457031 L 27.839844 43.074219 C 27.746094 43.675781 27.25 44.121094 26.664063 44.121094 L 24.09375 44.121094 C 23.359375 44.121094 22.800781 43.429688 22.921875 42.671875 L 25.261719 27.558594 C 25.273438 27.507813 25.292969 27.460938 25.300781 27.410156 L 25.765625 24.703125 C 25.964844 24.289063 26.359375 24.007813 26.820313 24.007813 Z M 54.671875 31.136719 C 54.441406 31.136719 54.210938 31.269531 54.113281 31.546875 L 52.503906 36.167969 C 52.363281 36.574219 52.652344 37.003906 53.0625 37.003906 L 55.574219 37.003906 C 55.953125 37.003906 56.234375 36.644531 56.15625 36.253906 L 55.253906 31.636719 C 55.191406 31.308594 54.929688 31.136719 54.671875 31.136719 Z M 31.402344 33.140625 C 32.417969 35.382813 34.558594 36.574219 36.109375 37.4375 C 36.476563 37.640625 36.957031 37.90625 37.3125 38.140625 C 37.070313 38.1875 36.753906 38.222656 36.34375 38.222656 C 35.402344 38.222656 34.359375 38.03125 33.550781 37.707031 C 33.167969 37.554688 32.769531 37.476563 32.363281 37.476563 C 31.734375 37.476563 31.148438 37.660156 30.652344 37.980469 Z"/></svg>